# Blender v2.80 (sub 75) OBJ File: ''
# www.blender.org
mtllib model_inside.mtl
o Cube
v 1.000000 2.000000 -1.000000
v 1.000000 0.000000 -1.000000
v 1.000000 2.000000 1.000000
v 1.000000 0.000000 1.000000
v -1.000000 2.000000 -1.000000
v -1.000000 0.000000 -1.000000
v -1.000000 2.000000 1.000000
v -1.000000 0.000000 1.000000
v 0.000000 2.000000 1.000000
v 1.000000 2.000000 0.000000
v -1.000000 2.000000 0.000000
v 0.000000 2.000000 -1.000000
v 0.000000 1.900000 0.000000
vt 0.561198 0.179036
vt 0.561198 0.294984
vt 0.445250 0.294984
vt 0.445250 0.179036
vt 0.699719 0.552083
vt 0.699719 0.416365
vt 0.767578 0.416365
vt 0.835437 0.416365
vt 0.835437 0.552083
vt 0.835437 0.687801
vt 0.699719 0.687801
vt 0.699719 0.619942
vt 0.699719 0.552083
vt 0.835437 0.552083
vt 0.971155 0.552083
vt 0.835437 0.552083
vt 0.835437 0.416365
vt 0.971155 0.416365
vt 0.699719 0.552083
vt 0.564001 0.552083
vt 0.564001 0.484224
vt 0.564001 0.416365
vt 0.699719 0.416365
vt 0.699719 0.687801
vt 0.564001 0.687801
vt 0.564001 0.619942
vt 0.561198 0.063088
vt 0.445250 0.063089
vt 0.677146 0.063088
vt 0.677146 0.179036
vt 0.677146 0.294984
vn 0.0499 0.9975 -0.0499
vn 0.0000 0.0000 1.0000
vn -1.0000 0.0000 0.0000
vn 0.0000 -1.0000 0.0000
vn 1.0000 0.0000 0.0000
vn 0.0000 0.0000 -1.0000
vn -0.0499 0.9975 -0.0499
vn -0.0499 0.9975 0.0499
vn 0.0499 0.9975 0.0499
usemtl Material
s off
f 13/1/1 11/2/1 7/3/1 9/4/1
f 4/5/2 3/6/2 9/7/2 7/8/2 8/9/2
f 8/10/3 7/11/3 11/12/3 5/13/3 6/14/3
f 6/15/4 2/16/4 4/17/4 8/18/4
f 2/19/5 1/20/5 10/21/5 3/22/5 4/23/5
f 6/24/6 5/25/6 12/26/6 1/20/6 2/19/6
f 10/27/7 13/1/7 9/4/7 3/28/7
f 1/29/8 12/30/8 13/1/8 10/27/8
f 12/30/9 5/31/9 11/2/9 13/1/9
