# Blender v2.80 (sub 75) OBJ File: ''
# www.blender.org
mtllib lod_001.mtl
o Cube.001
v 0.000000 -0.503124 -0.234480
v 0.000000 -0.465827 3.751616
v 0.497749 -0.465826 2.928636
v 0.419621 -0.503124 -0.230729
v 0.232971 -0.903770 -0.611908
v 0.276347 -0.941067 1.846124
v 0.000000 -0.941067 2.399891
v -0.497749 -0.465826 2.928636
v -0.276347 -0.941067 1.846124
v 0.000000 -0.903770 -0.600510
v 0.000000 -0.941066 -3.288427
v 0.276347 -0.941067 -2.829309
v 0.000000 -0.465825 -3.656968
v 0.497749 -0.465826 -2.928636
v -0.232971 -0.903770 -0.611908
v -0.419621 -0.503124 -0.230729
v -0.497749 -0.465826 -2.928636
v -0.276347 -0.941067 -2.829309
vt 0.053755 0.378798
vt 0.053755 0.819968
vt 0.000000 0.728882
vt 0.008438 0.379213
vt 0.344260 0.388318
vt 0.297495 0.345709
vt 0.298131 0.000000
vt 0.352027 0.119280
vt 0.163420 0.629107
vt 0.157810 0.778644
vt 0.107509 0.685509
vt 0.135895 0.566688
vt 0.175869 0.297277
vt 0.187022 0.000000
vt 0.214939 0.051952
vt 0.201058 0.297007
vt 0.352027 0.684166
vt 0.304790 0.727109
vt 0.283483 0.638714
vt 0.340334 0.629119
vt 0.275717 0.338791
vt 0.228952 0.381399
vt 0.214939 0.088394
vt 0.271791 0.097989
vt 0.236246 0.000000
vt 0.283483 0.042943
vt 0.150775 0.295026
vt 0.155295 0.049602
vt 0.195540 0.569038
vt 0.214939 0.689742
vt 0.099072 0.379213
vt 0.107509 0.728882
vt 0.107509 0.080610
vt 0.053755 0.000000
vt 0.283483 0.607828
vt 0.229587 0.727109
vt 0.000000 0.080610
vn -0.0092 0.9999 -0.0103
vn 0.9186 -0.3947 -0.0199
vn -0.4930 -0.8247 0.2772
vn -0.0133 -0.9998 0.0151
vn 0.7599 -0.4209 -0.4954
vn -0.9035 -0.4281 0.0223
vn -0.7599 -0.4209 -0.4954
vn 0.0133 -0.9998 0.0151
vn 0.4930 -0.8247 0.2772
vn 0.0092 0.9999 -0.0103
vn 0.0096 0.9999 0.0121
vn 0.0150 -0.9998 -0.0135
vn -0.9186 -0.3947 -0.0199
vn -0.0150 -0.9998 -0.0135
vn 0.9035 -0.4281 0.0223
vn -0.0096 0.9999 0.0121
usemtl wood
s 1
f 1/1/1 2/2/1 3/3/1 4/4/1
f 5/5/2 4/6/2 3/7/2 6/8/2
f 7/9/3 2/10/3 8/11/3 9/12/3
f 10/13/4 11/14/4 12/15/4 5/16/4
f 11/17/5 13/18/5 14/19/5 12/20/5
f 15/21/6 16/22/6 17/23/6 18/24/6
f 18/24/7 17/23/7 13/25/7 11/26/7
f 15/27/8 18/28/8 11/14/8 10/13/8
f 6/29/9 3/30/9 2/10/9 7/9/9
f 16/31/10 8/32/10 2/2/10 1/1/10
f 17/33/11 16/31/11 1/1/11 13/34/11
f 9/12/12 15/27/12 10/13/12 7/9/12
f 9/35/13 8/36/13 16/22/13 15/21/13
f 7/9/14 10/13/14 5/16/14 6/29/14
f 12/20/15 14/19/15 4/6/15 5/5/15
f 13/34/16 1/1/16 4/4/16 14/37/16
o Cube_Cube.002
v -0.100000 -0.714399 0.250317
v -0.100000 3.270380 -0.098306
v -0.100000 -0.731831 0.051078
v -0.100000 3.252948 -0.297545
v 0.100000 -0.714399 0.250317
v 0.100000 3.270380 -0.098306
v 0.100000 -0.731831 0.051078
v 0.100000 3.252948 -0.297545
vt 0.784009 0.442713
vt 0.568018 0.442713
vt 0.568018 0.221356
vt 0.784009 0.221356
vt 0.568018 0.664069
vt 0.352027 0.664069
vt 0.352027 0.442713
vt 0.568018 0.442713
vt 0.352027 0.221356
vt 0.568018 0.221356
vt 0.568018 0.664069
vt 0.568018 0.442713
vt 0.784009 0.442713
vt 0.784009 0.664069
vt 1.000000 0.442713
vt 0.784009 0.442713
vt 0.784009 0.221356
vt 1.000000 0.221356
vt 1.000000 0.000000
vt 1.000000 0.221356
vt 0.784009 0.221356
vt 0.784009 0.000000
vn -1.0000 0.0000 0.0000
vn 0.0000 -0.0872 -0.9962
vn 1.0000 0.0000 0.0000
vn 0.0000 0.0872 0.9962
vn 0.0000 -0.9962 0.0872
vn 0.0000 0.9962 -0.0872
usemtl wood
s off
f 19/38/17 20/39/17 22/40/17 21/41/17
f 21/42/18 22/43/18 26/44/18 25/45/18
f 25/45/19 26/44/19 24/46/19 23/47/19
f 23/48/20 24/49/20 20/50/20 19/51/20
f 21/52/21 25/53/21 23/54/21 19/55/21
f 26/56/22 22/57/22 20/58/22 24/59/22
o Cube.002
v -0.100000 -0.650221 2.217694
v -0.100000 2.537602 1.938795
v -0.100000 -0.667652 2.018455
v -0.100000 2.520171 1.739556
v 0.100000 -0.650221 2.217694
v 0.100000 2.537602 1.938795
v 0.100000 -0.667652 2.018455
v 0.100000 2.520171 1.739556
vt 0.784009 0.442713
vt 0.568018 0.442713
vt 0.568018 0.221356
vt 0.784009 0.221356
vt 0.568018 0.664069
vt 0.352027 0.664069
vt 0.352027 0.442713
vt 0.568018 0.442713
vt 0.352027 0.221356
vt 0.568018 0.221356
vt 0.568018 0.664069
vt 0.568018 0.442713
vt 0.784009 0.442713
vt 0.784009 0.664069
vt 1.000000 0.442713
vt 0.784009 0.442713
vt 0.784009 0.221356
vt 1.000000 0.221356
vt 1.000000 0.000000
vt 1.000000 0.221356
vt 0.784009 0.221356
vt 0.784009 0.000000
vn -1.0000 0.0000 0.0000
vn 0.0000 -0.0872 -0.9962
vn 1.0000 -0.0000 0.0000
vn 0.0000 0.0872 0.9962
vn 0.0000 -0.9962 0.0872
vn 0.0000 0.9962 -0.0872
usemtl wood
s off
f 27/60/23 28/61/23 30/62/23 29/63/23
f 29/64/24 30/65/24 34/66/24 33/67/24
f 33/67/25 34/66/25 32/68/25 31/69/25
f 31/70/26 32/71/26 28/72/26 27/73/26
f 29/74/27 33/75/27 31/76/27 27/77/27
f 34/78/28 30/79/28 28/80/28 32/81/28
o Cube.003_Cube.002
v -0.100000 -0.740622 -2.010904
v -0.100000 2.447201 -2.289803
v -0.100000 -0.758053 -2.210143
v -0.100000 2.429770 -2.489042
v 0.100000 -0.740622 -2.010904
v 0.100000 2.447201 -2.289803
v 0.100000 -0.758053 -2.210143
v 0.100000 2.429770 -2.489042
vt 0.784009 0.442713
vt 0.568018 0.442713
vt 0.568018 0.221356
vt 0.784009 0.221356
vt 0.568018 0.664069
vt 0.352027 0.664069
vt 0.352027 0.442713
vt 0.568018 0.442713
vt 0.352027 0.221356
vt 0.568018 0.221356
vt 0.568018 0.664069
vt 0.568018 0.442713
vt 0.784009 0.442713
vt 0.784009 0.664069
vt 1.000000 0.442713
vt 0.784009 0.442713
vt 0.784009 0.221356
vt 1.000000 0.221356
vt 1.000000 0.000000
vt 1.000000 0.221356
vt 0.784009 0.221356
vt 0.784009 0.000000
vn -1.0000 0.0000 0.0000
vn 0.0000 -0.0872 -0.9962
vn 1.0000 0.0000 0.0000
vn 0.0000 0.0872 0.9962
vn 0.0000 -0.9962 0.0872
vn 0.0000 0.9962 -0.0872
usemtl wood
s off
f 35/82/29 36/83/29 38/84/29 37/85/29
f 37/86/30 38/87/30 42/88/30 41/89/30
f 41/89/31 42/88/31 40/90/31 39/91/31
f 39/92/32 40/93/32 36/94/32 35/95/32
f 37/96/33 41/97/33 39/98/33 35/99/33
f 42/100/34 38/101/34 36/102/34 40/103/34
o Cube.005_Cube.003
v -1.000000 1.328456 2.134545
v -1.000000 2.523890 2.029958
v -1.000000 1.319740 2.034925
v -1.000000 2.515174 1.930338
v 1.000000 1.328456 2.134545
v 1.000000 2.523890 2.029958
v 1.000000 1.319740 2.034925
v 1.000000 2.515174 1.930338
vt 0.784009 0.885425
vt 0.568018 0.885425
vt 0.568018 0.664069
vt 0.784009 0.664069
vt 0.784009 0.221356
vt 0.568018 0.221356
vt 0.568018 0.000000
vt 0.784009 0.000000
vt 0.568018 0.221356
vt 0.352027 0.221356
vt 0.352027 0.000000
vt 0.568018 0.000000
vt 0.352027 0.885425
vt 0.352027 0.664069
vt 0.568018 0.664069
vt 0.568018 0.885425
vt 1.000000 0.664069
vt 0.784009 0.664069
vt 0.784009 0.442713
vt 1.000000 0.442713
vt 0.323500 0.778644
vt 0.323500 1.000000
vt 0.107509 1.000000
vt 0.107509 0.778644
vn -1.0000 0.0000 0.0000
vn 0.0000 -0.0872 -0.9962
vn 1.0000 0.0000 0.0000
vn 0.0000 0.0872 0.9962
vn 0.0000 -0.9962 0.0872
vn 0.0000 0.9962 -0.0872
usemtl sails
s off
f 43/104/35 44/105/35 46/106/35 45/107/35
f 45/108/36 46/109/36 50/110/36 49/111/36
f 49/112/37 50/113/37 48/114/37 47/115/37
f 47/116/38 48/117/38 44/118/38 43/119/38
f 45/120/39 49/121/39 47/122/39 43/123/39
f 50/124/40 46/125/40 44/126/40 48/127/40
o Cube.006_Cube.003
v -1.200000 -0.082630 2.257999
v -1.200000 1.112804 2.153412
v -1.200000 -0.091345 2.158379
v -1.200000 1.104088 2.053792
v 1.200000 -0.082630 2.257999
v 1.200000 1.112804 2.153412
v 1.200000 -0.091345 2.158379
v 1.200000 1.104088 2.053792
vt 0.784009 0.885425
vt 0.568018 0.885425
vt 0.568018 0.664069
vt 0.784009 0.664069
vt 0.784009 0.221356
vt 0.568018 0.221356
vt 0.568018 0.000000
vt 0.784009 0.000000
vt 0.568018 0.221356
vt 0.352027 0.221356
vt 0.352027 0.000000
vt 0.568018 0.000000
vt 0.352027 0.885425
vt 0.352027 0.664069
vt 0.568018 0.664069
vt 0.568018 0.885425
vt 1.000000 0.664069
vt 0.784009 0.664069
vt 0.784009 0.442713
vt 1.000000 0.442713
vt 0.323500 0.778644
vt 0.323500 1.000000
vt 0.107509 1.000000
vt 0.107509 0.778644
vn -1.0000 0.0000 0.0000
vn 0.0000 -0.0872 -0.9962
vn 1.0000 0.0000 0.0000
vn 0.0000 0.0872 0.9962
vn 0.0000 -0.9962 0.0872
vn 0.0000 0.9962 -0.0872
usemtl sails
s off
f 51/128/41 52/129/41 54/130/41 53/131/41
f 53/132/42 54/133/42 58/134/42 57/135/42
f 57/136/43 58/137/43 56/138/43 55/139/43
f 55/140/44 56/141/44 52/142/44 51/143/44
f 53/144/45 57/145/45 55/146/45 51/147/45
f 58/148/46 54/149/46 52/150/46 56/151/46
o Cube.004_Cube.003
v -0.760586 2.169572 0.088984
v -0.760586 3.078802 0.009437
v -0.760586 2.162943 0.013215
v -0.760586 3.072173 -0.066333
v 0.760586 2.169572 0.088984
v 0.760586 3.078802 0.009437
v 0.760586 2.162943 0.013215
v 0.760586 3.072173 -0.066333
vt 0.784009 0.885425
vt 0.568018 0.885425
vt 0.568018 0.664069
vt 0.784009 0.664069
vt 0.784009 0.221356
vt 0.568018 0.221356
vt 0.568018 0.000000
vt 0.784009 0.000000
vt 0.568018 0.221356
vt 0.352027 0.221356
vt 0.352027 0.000000
vt 0.568018 0.000000
vt 0.352027 0.885425
vt 0.352027 0.664069
vt 0.568018 0.664069
vt 0.568018 0.885425
vt 1.000000 0.664069
vt 0.784009 0.664069
vt 0.784009 0.442713
vt 1.000000 0.442713
vt 0.323500 0.778644
vt 0.323500 1.000000
vt 0.107509 1.000000
vt 0.107509 0.778644
vn -1.0000 0.0000 0.0000
vn 0.0000 -0.0872 -0.9962
vn 1.0000 -0.0000 0.0000
vn 0.0000 0.0872 0.9962
vn 0.0000 -0.9962 0.0872
vn 0.0000 0.9962 -0.0872
usemtl sails
s off
f 59/152/47 60/153/47 62/154/47 61/155/47
f 61/156/48 62/157/48 66/158/48 65/159/48
f 65/160/49 66/161/49 64/162/49 63/163/49
f 63/164/50 64/165/50 60/166/50 59/167/50
f 61/168/51 65/169/51 63/170/51 59/171/51
f 66/172/52 62/173/52 60/174/52 64/175/52
o Cube.007_Cube.003
v -1.021028 1.167783 0.323801
v -1.021028 2.184926 0.234812
v -1.021028 1.160367 0.239039
v -1.021028 2.177510 0.150050
v 1.021028 1.167783 0.323801
v 1.021028 2.184926 0.234812
v 1.021028 1.160367 0.239039
v 1.021028 2.177510 0.150050
vt 0.784009 0.885425
vt 0.568018 0.885425
vt 0.568018 0.664069
vt 0.784009 0.664069
vt 0.784009 0.221356
vt 0.568018 0.221356
vt 0.568018 0.000000
vt 0.784009 0.000000
vt 0.568018 0.221356
vt 0.352027 0.221356
vt 0.352027 0.000000
vt 0.568018 0.000000
vt 0.352027 0.885425
vt 0.352027 0.664069
vt 0.568018 0.664069
vt 0.568018 0.885425
vt 1.000000 0.664069
vt 0.784009 0.664069
vt 0.784009 0.442713
vt 1.000000 0.442713
vt 0.323500 0.778644
vt 0.323500 1.000000
vt 0.107509 1.000000
vt 0.107509 0.778644
vn -1.0000 0.0000 0.0000
vn 0.0000 -0.0872 -0.9962
vn 1.0000 0.0000 0.0000
vn 0.0000 0.0872 0.9962
vn 0.0000 -0.9962 0.0872
vn 0.0000 0.9962 -0.0872
usemtl sails
s off
f 67/176/53 68/177/53 70/178/53 69/179/53
f 69/180/54 70/181/54 74/182/54 73/183/54
f 73/184/55 74/185/55 72/186/55 71/187/55
f 71/188/56 72/189/56 68/190/56 67/191/56
f 69/192/57 73/193/57 71/194/57 67/195/57
f 74/196/58 70/197/58 68/198/58 72/199/58
o Cube.008_Cube.003
v -1.000000 1.188644 -2.085426
v -1.000000 2.384078 -2.190013
v -1.000000 1.179929 -2.185045
v -1.000000 2.375362 -2.289632
v 1.000000 1.188644 -2.085426
v 1.000000 2.384078 -2.190013
v 1.000000 1.179929 -2.185045
v 1.000000 2.375362 -2.289632
vt 0.784009 0.885425
vt 0.568018 0.885425
vt 0.568018 0.664069
vt 0.784009 0.664069
vt 0.784009 0.221356
vt 0.568018 0.221356
vt 0.568018 0.000000
vt 0.784009 0.000000
vt 0.568018 0.221356
vt 0.352027 0.221356
vt 0.352027 0.000000
vt 0.568018 0.000000
vt 0.352027 0.885425
vt 0.352027 0.664069
vt 0.568018 0.664069
vt 0.568018 0.885425
vt 1.000000 0.664069
vt 0.784009 0.664069
vt 0.784009 0.442713
vt 1.000000 0.442713
vt 0.323500 0.778644
vt 0.323500 1.000000
vt 0.107509 1.000000
vt 0.107509 0.778644
vn -1.0000 0.0000 0.0000
vn 0.0000 -0.0872 -0.9962
vn 1.0000 0.0000 0.0000
vn 0.0000 0.0872 0.9962
vn 0.0000 -0.9962 0.0872
vn 0.0000 0.9962 -0.0872
usemtl sails
s off
f 75/200/59 76/201/59 78/202/59 77/203/59
f 77/204/60 78/205/60 82/206/60 81/207/60
f 81/208/61 82/209/61 80/210/61 79/211/61
f 79/212/62 80/213/62 76/214/62 75/215/62
f 77/216/63 81/217/63 79/218/63 75/219/63
f 82/220/64 78/221/64 76/222/64 80/223/64
o Cube.009_Cube.003
v -1.200000 -0.222441 -1.961972
v -1.200000 0.972992 -2.066559
v -1.200000 -0.231157 -2.061591
v -1.200000 0.964277 -2.166178
v 1.200000 -0.222441 -1.961972
v 1.200000 0.972992 -2.066559
v 1.200000 -0.231157 -2.061591
v 1.200000 0.964277 -2.166178
vt 0.784009 0.885425
vt 0.568018 0.885425
vt 0.568018 0.664069
vt 0.784009 0.664069
vt 0.784009 0.221356
vt 0.568018 0.221356
vt 0.568018 0.000000
vt 0.784009 0.000000
vt 0.568018 0.221356
vt 0.352027 0.221356
vt 0.352027 0.000000
vt 0.568018 0.000000
vt 0.352027 0.885425
vt 0.352027 0.664069
vt 0.568018 0.664069
vt 0.568018 0.885425
vt 1.000000 0.664069
vt 0.784009 0.664069
vt 0.784009 0.442713
vt 1.000000 0.442713
vt 0.323500 0.778644
vt 0.323500 1.000000
vt 0.107509 1.000000
vt 0.107509 0.778644
vn -1.0000 0.0000 0.0000
vn 0.0000 -0.0872 -0.9962
vn 1.0000 0.0000 0.0000
vn 0.0000 0.0872 0.9962
vn 0.0000 -0.9962 0.0872
vn 0.0000 0.9962 -0.0872
usemtl sails
s off
f 83/224/65 84/225/65 86/226/65 85/227/65
f 85/228/66 86/229/66 90/230/66 89/231/66
f 89/232/67 90/233/67 88/234/67 87/235/67
f 87/236/68 88/237/68 84/238/68 83/239/68
f 85/240/69 89/241/69 87/242/69 83/243/69
f 90/244/70 86/245/70 84/246/70 88/247/70
o Cube.010_Cube.003
v -1.200000 -0.069705 0.544823
v -1.200000 1.130296 0.544823
v -1.200000 -0.069705 0.444823
v -1.200000 1.130296 0.444823
v 1.200000 -0.069705 0.544823
v 1.200000 1.130296 0.544823
v 1.200000 -0.069705 0.444823
v 1.200000 1.130296 0.444823
vt 0.784009 0.885425
vt 0.568018 0.885425
vt 0.568018 0.664069
vt 0.784009 0.664069
vt 0.784009 0.221356
vt 0.568018 0.221356
vt 0.568018 0.000000
vt 0.784009 0.000000
vt 0.568018 0.221356
vt 0.352027 0.221356
vt 0.352027 0.000000
vt 0.568018 0.000000
vt 0.352027 0.885425
vt 0.352027 0.664069
vt 0.568018 0.664069
vt 0.568018 0.885425
vt 1.000000 0.664069
vt 0.784009 0.664069
vt 0.784009 0.442713
vt 1.000000 0.442713
vt 0.323500 0.778644
vt 0.323500 1.000000
vt 0.107509 1.000000
vt 0.107509 0.778644
vn -1.0000 0.0000 0.0000
vn 0.0000 0.0000 -1.0000
vn 1.0000 0.0000 0.0000
vn 0.0000 0.0000 1.0000
vn 0.0000 -1.0000 0.0000
vn 0.0000 1.0000 0.0000
usemtl sails
s off
f 91/248/71 92/249/71 94/250/71 93/251/71
f 93/252/72 94/253/72 98/254/72 97/255/72
f 97/256/73 98/257/73 96/258/73 95/259/73
f 95/260/74 96/261/74 92/262/74 91/263/74
f 93/264/75 97/265/75 95/266/75 91/267/75
f 98/268/76 94/269/76 92/270/76 96/271/76
