# Blender v2.80 (sub 75) OBJ File: ''
# www.blender.org
o Cube
v 0.300000 2.000000 -0.300000
v 0.300000 0.000000 -0.300000
v 0.300000 2.000000 0.300000
v 0.300000 0.000000 0.300000
v -0.300000 2.000000 -0.300000
v -0.300000 0.000000 -0.300000
v -0.300000 2.000000 0.300000
v -0.300000 0.000000 0.300000
vt 1.000000 0.600000
vt 1.000000 0.800000
vt 0.769090 0.800000
vt 0.769090 0.600000
vt 0.538181 0.800000
vt 0.538181 0.600000
vt 0.769090 0.600000
vt 0.769090 0.800000
vt 0.538181 0.831870
vt 0.307271 0.831870
vt 0.307271 0.631871
vt 0.538181 0.631871
vt 0.230910 0.877866
vt 0.000000 0.877866
vt 0.000000 0.677866
vt 0.230910 0.677866
vt 0.769090 0.200000
vt 0.538181 0.200000
vt 0.538181 0.000000
vt 0.769090 0.000000
vt 0.769090 0.600000
vt 0.538181 0.600000
vt 0.538181 0.400000
vt 0.769090 0.400000
vn 0.0000 1.0000 0.0000
vn 0.0000 0.0000 1.0000
vn -1.0000 0.0000 0.0000
vn 0.0000 -1.0000 0.0000
vn 1.0000 0.0000 0.0000
vn 0.0000 0.0000 -1.0000
s off
f 1/1/1 5/2/1 7/3/1 3/4/1
f 4/5/2 3/6/2 7/7/2 8/8/2
f 8/9/3 7/10/3 5/11/3 6/12/3
f 6/13/4 2/14/4 4/15/4 8/16/4
f 2/17/5 1/18/5 3/19/5 4/20/5
f 6/21/6 5/22/6 1/23/6 2/24/6
o Cube.001
v -1.200754 1.294376 1.200754
v -0.960802 3.093429 0.960802
v -1.200754 1.294376 -1.200754
v -0.960802 3.093429 -0.960802
v 1.200754 1.294376 1.200754
v 0.960802 3.093429 0.960802
v 1.200754 1.294376 -1.200754
v 0.960802 3.093429 -0.960802
v -1.783343 1.294376 0.000000
v -1.200754 2.193902 1.200754
v -1.200754 3.093429 0.000000
v -1.200754 2.193902 -1.200754
v 0.000000 1.294376 -1.783343
v 0.000000 3.093429 -1.200754
v 1.200754 2.193902 -1.200754
v 1.783343 1.294376 0.000000
v 1.200754 3.093429 0.000000
v 1.200754 2.193902 1.200754
v 0.000000 1.294376 1.783343
v 0.000000 3.093429 1.200754
v 0.000000 3.454352 0.000000
v 0.000000 1.294376 0.000000
v 0.000000 2.193902 1.389903
v 1.389903 2.193902 0.000000
v 0.000000 2.193902 -1.389903
v -1.389903 2.193902 0.000000
vt 0.116726 0.371517
vt 0.114818 0.441445
vt 0.020525 0.443545
vt 0.000000 0.372464
vt 0.425270 0.314897
vt 0.423363 0.416076
vt 0.329069 0.418176
vt 0.308545 0.315845
vt 0.425270 0.104274
vt 0.423363 0.205452
vt 0.329069 0.207553
vt 0.308545 0.105221
vt 0.425270 0.525521
vt 0.423363 0.626699
vt 0.329069 0.628800
vt 0.308545 0.526468
vt 0.154272 0.133621
vt 0.000000 0.068790
vt 0.100797 0.000000
vt 0.229123 0.000000
vt 0.885360 0.894405
vt 0.794313 0.879423
vt 0.838341 0.806767
vt 0.933078 0.806767
vt 0.992324 0.921026
vt 0.991742 0.838704
vt 0.948296 0.993682
vt 0.853559 0.993682
vt 0.794895 0.961745
vt 0.308545 0.198453
vt 0.308545 0.087304
vt 0.207748 0.267243
vt 0.079421 0.267243
vt 0.000000 0.179939
vt 0.429238 0.421247
vt 0.308545 0.428156
vt 0.538181 0.431994
vt 0.538181 0.530306
vt 0.512816 0.631870
vt 0.429238 0.000000
vt 0.308545 0.006909
vt 0.538181 0.010747
vt 0.538181 0.109059
vt 0.512816 0.210624
vt 0.429238 0.210624
vt 0.308545 0.217532
vt 0.514743 0.210628
vt 0.514743 0.308940
vt 0.512816 0.421247
vt 0.120693 0.267243
vt 0.000000 0.274152
vt 0.229636 0.277990
vt 0.229636 0.376302
vt 0.204272 0.446616
vn -0.9493 0.2516 -0.1885
vn 0.1885 0.2516 -0.9493
vn 0.9493 0.2516 0.1885
vn -0.1885 0.2516 0.9493
vn 0.0000 -1.0000 -0.0000
vn -0.1815 0.9665 0.1815
vn 0.1815 0.9665 0.1815
vn 0.1815 0.9665 -0.1815
vn -0.1815 0.9665 -0.1815
vn -0.2995 0.2038 0.9321
vn 0.2995 0.2038 0.9321
vn 0.1885 0.2516 0.9493
vn 0.9321 0.2038 0.2995
vn 0.9321 0.2038 -0.2995
vn 0.9493 0.2516 -0.1885
vn 0.2995 0.2038 -0.9321
vn -0.2995 0.2038 -0.9321
vn -0.1885 0.2516 -0.9493
vn -0.9321 0.2038 -0.2995
vn -0.9321 0.2038 0.2995
vn -0.9493 0.2516 0.1885
s off
f 34/25/7 19/26/7 12/27/7 20/28/7
f 33/29/8 22/30/8 16/31/8 23/32/8
f 32/33/9 25/34/9 14/35/9 26/36/9
f 31/37/10 28/38/10 10/39/10 18/40/10
f 30/41/11 24/42/11 13/43/11 27/44/11
f 29/45/12 19/46/12 10/47/12 28/48/12
f 25/49/13 29/45/13 28/48/13 14/50/13
f 16/51/14 22/52/14 29/45/14 25/49/14
f 22/52/15 12/53/15 19/46/15 29/45/15
f 17/54/11 30/41/11 27/44/11 9/55/11
f 11/56/11 21/57/11 30/41/11 17/54/11
f 21/57/11 15/58/11 24/42/11 30/41/11
f 27/59/16 31/37/16 18/40/16 9/60/16
f 13/61/17 26/62/17 31/37/17 27/59/17
f 26/62/18 14/63/18 28/38/18 31/37/18
f 24/64/19 32/33/19 26/36/19 13/65/19
f 15/66/20 23/67/20 32/33/20 24/64/20
f 23/67/21 16/68/21 25/34/21 32/33/21
f 21/69/22 33/29/22 23/32/22 15/70/22
f 11/71/23 20/72/23 33/29/23 21/69/23
f 20/72/24 12/73/24 22/30/24 33/29/24
f 17/74/25 34/25/25 20/28/25 11/75/25
f 9/76/26 18/77/26 34/25/26 17/74/26
f 18/77/27 10/78/27 19/26/27 34/25/27
o Cube.002_Cube.003
v 1.549217 0.028218 0.366443
v 1.549217 0.761104 0.366443
v 1.549217 0.028218 -0.366443
v 1.549217 0.761104 -0.366443
v 2.282104 0.028218 0.366443
v 2.282104 0.761104 0.366443
v 2.282104 0.028218 -0.366443
v 2.282104 0.761104 -0.366443
vt 1.000000 0.400000
vt 0.769090 0.400000
vt 0.769090 0.200000
vt 1.000000 0.200000
vt 0.230910 0.677866
vt 0.000000 0.677866
vt 0.000000 0.477866
vt 0.230910 0.477866
vt 0.769090 0.400000
vt 0.538181 0.400000
vt 0.538181 0.200000
vt 0.769090 0.200000
vt 0.769090 0.000000
vt 1.000000 0.000000
vt 1.000000 0.200000
vt 0.769090 1.000000
vt 0.538181 1.000000
vt 0.538181 0.800000
vt 0.769090 0.800000
vt 1.000000 0.400000
vt 1.000000 0.600000
vt 0.769090 0.600000
vt 0.769090 0.400000
vn -1.0000 0.0000 0.0000
vn 0.0000 0.0000 -1.0000
vn 1.0000 0.0000 0.0000
vn 0.0000 0.0000 1.0000
vn 0.0000 -1.0000 0.0000
vn 0.0000 1.0000 0.0000
s off
f 35/79/28 36/80/28 38/81/28 37/82/28
f 37/83/29 38/84/29 42/85/29 41/86/29
f 41/87/30 42/88/30 40/89/30 39/90/30
f 39/90/31 40/91/31 36/92/31 35/93/31
f 37/94/32 41/95/32 39/96/32 35/97/32
f 42/98/33 38/99/33 36/100/33 40/101/33
o Cube.003
v -0.979091 0.028218 -1.485409
v -0.979091 0.761104 -1.485409
v -0.979091 0.028218 -2.218295
v -0.979091 0.761104 -2.218295
v -0.246204 0.028218 -1.485409
v -0.246204 0.761104 -1.485409
v -0.246204 0.028218 -2.218295
v -0.246204 0.761104 -2.218295
vt 1.000000 0.400000
vt 0.769090 0.400000
vt 0.769090 0.200000
vt 1.000000 0.200000
vt 0.230910 0.677866
vt 0.000000 0.677866
vt 0.000000 0.477866
vt 0.230910 0.477866
vt 0.769090 0.400000
vt 0.538181 0.400000
vt 0.538181 0.200000
vt 0.769090 0.200000
vt 0.769090 0.000000
vt 1.000000 0.000000
vt 1.000000 0.200000
vt 0.769090 1.000000
vt 0.538181 1.000000
vt 0.538181 0.800000
vt 0.769090 0.800000
vt 1.000000 0.400000
vt 1.000000 0.600000
vt 0.769090 0.600000
vt 0.769090 0.400000
vn -1.0000 0.0000 0.0000
vn 0.0000 0.0000 -1.0000
vn 1.0000 0.0000 0.0000
vn 0.0000 0.0000 1.0000
vn 0.0000 -1.0000 0.0000
vn 0.0000 1.0000 0.0000
s off
f 43/102/34 44/103/34 46/104/34 45/105/34
f 45/106/35 46/107/35 50/108/35 49/109/35
f 49/110/36 50/111/36 48/112/36 47/113/36
f 47/113/37 48/114/37 44/115/37 43/116/37
f 45/117/38 49/118/38 47/119/38 43/120/38
f 50/121/39 46/122/39 44/123/39 48/124/39
o Cube.004_Cube.003
v -1.644960 0.028218 1.664420
v -1.644960 0.761104 1.664420
v -1.644960 0.028218 0.931534
v -1.644960 0.761104 0.931534
v -0.912073 0.028218 1.664420
v -0.912073 0.761104 1.664420
v -0.912073 0.028218 0.931534
v -0.912073 0.761104 0.931534
vt 1.000000 0.400000
vt 0.769090 0.400000
vt 0.769090 0.200000
vt 1.000000 0.200000
vt 0.230910 0.677866
vt 0.000000 0.677866
vt 0.000000 0.477866
vt 0.230910 0.477866
vt 0.769090 0.400000
vt 0.538181 0.400000
vt 0.538181 0.200000
vt 0.769090 0.200000
vt 0.769090 0.000000
vt 1.000000 0.000000
vt 1.000000 0.200000
vt 0.769090 1.000000
vt 0.538181 1.000000
vt 0.538181 0.800000
vt 0.769090 0.800000
vt 1.000000 0.400000
vt 1.000000 0.600000
vt 0.769090 0.600000
vt 0.769090 0.400000
vn -1.0000 0.0000 0.0000
vn 0.0000 0.0000 -1.0000
vn 1.0000 0.0000 0.0000
vn 0.0000 0.0000 1.0000
vn 0.0000 -1.0000 0.0000
vn 0.0000 1.0000 0.0000
s off
f 51/125/40 52/126/40 54/127/40 53/128/40
f 53/129/41 54/130/41 58/131/41 57/132/41
f 57/133/42 58/134/42 56/135/42 55/136/42
f 55/136/43 56/137/43 52/138/43 51/139/43
f 53/140/44 57/141/44 55/142/44 51/143/44
f 58/144/45 54/145/45 52/146/45 56/147/45
