# Blender v2.80 (sub 75) OBJ File: ''
# www.blender.org
mtllib model_oneside.mtl
o Cube
v 1.000000 0.000000 -1.000000
v 1.196889 0.000000 1.236267
v -1.000000 0.000000 -1.000000
v -1.000000 0.000000 1.000000
v 0.900000 2.000000 -0.900000
v 1.000000 1.900000 -1.000000
v 0.900000 2.000000 0.900000
v 1.068251 1.713741 1.223380
v -1.000000 2.000000 -1.000000
v -1.000000 2.000000 1.000000
v -0.066667 0.000000 -1.200000
v -1.000000 1.000000 -1.000000
v -0.066667 0.000000 1.200000
v -0.147500 1.955000 -1.247500
v 1.133333 0.000000 0.000000
v 0.992500 1.955000 1.092500
v -0.050000 1.960753 0.950000
v 0.950000 1.950000 -0.950000
v 0.900000 2.084188 0.000000
v 1.152908 1.895000 -0.047500
v -0.050000 2.123920 -0.950000
v -1.000000 1.000000 1.000000
v 0.000000 1.950000 1.000000
v 0.881866 0.950000 -0.818862
v 1.000000 0.950000 1.000000
v 0.000000 0.975000 -1.000000
v 1.022294 1.950000 0.000000
v 1.000000 0.950000 0.000000
v 0.000000 0.975000 1.000000
vt 0.396289 0.189909
vt 0.541319 0.348499
vt 0.389018 0.333293
vt 0.372366 0.363381
vt 0.708960 0.045519
vt 0.556559 0.045858
vt 0.573180 0.000000
vt 0.394233 0.039103
vt 0.402292 0.047217
vt 0.333360 0.395624
vt 0.337440 0.539064
vt 0.315631 0.539064
vt 0.325753 0.387755
vt 0.375587 0.189547
vt 0.532819 0.356116
vt 0.694212 0.363381
vt 0.514813 0.555949
vt 0.670717 0.555949
vt 0.677278 0.714760
vt 0.517377 0.714760
vt 0.838639 0.681701
vt 0.677278 0.681701
vt 0.677278 0.363381
vt 0.838639 0.363381
vt 0.203889 0.387755
vt 0.031770 0.355924
vt 0.010255 0.196764
vt 0.162222 0.586260
vt 0.009877 0.592011
vt 0.038991 0.391258
vt 0.162176 0.427522
vt 0.000883 0.585983
vt 0.000000 0.412906
vt 0.838523 0.836939
vt 0.863820 0.993336
vt 0.677278 0.984220
vt 0.695219 0.832698
vt 0.850496 0.682119
vt 0.677278 0.681836
vt 0.999768 0.681701
vt 0.999768 0.840850
vt 0.999768 1.000000
vt 0.386174 0.030989
vt 0.354492 0.181249
vt 0.670940 0.397355
vt 0.629644 0.383946
vt 0.315631 0.584734
vt 0.315631 0.387755
vt 0.315558 0.745015
vt 0.162154 0.717612
vt 0.008977 0.744980
vt 0.203889 0.005772
vt 0.000000 0.000000
vt 0.354492 0.355924
vt 0.354492 0.037604
vt 1.000000 0.681701
vt 1.000000 0.363381
vt 0.354492 0.564429
vt 0.357475 0.714760
vt 0.355520 0.363381
vt 0.512249 0.397139
vn -0.0362 0.9950 0.0931
vn -0.0275 0.9704 0.2400
vn -0.0899 0.8784 -0.4693
vn 0.1459 0.8390 -0.5242
vn 0.1329 0.7641 -0.6312
vn 0.7209 0.6905 -0.0596
vn 0.6184 0.7848 0.0404
vn -0.0269 0.9714 0.2358
vn 0.0493 0.9855 0.1627
vn -0.0439 0.9954 0.0855
vn 0.1336 0.9867 -0.0923
vn -0.0445 0.9981 0.0418
vn 0.0000 0.0000 1.0000
vn -1.0000 0.0000 0.0000
vn 0.0000 -1.0000 0.0000
vn 0.9910 -0.1310 0.0265
vn 0.8067 0.5852 0.0827
vn 0.1941 -0.2099 -0.9583
vn 0.1907 0.1956 -0.9620
vn -0.1010 0.1036 -0.9895
vn -0.1362 -0.1329 -0.9817
vn 0.1683 0.7761 -0.6078
vn 0.4797 0.8757 -0.0545
vn -0.0849 0.4544 0.8867
vn 0.9854 0.1678 -0.0280
vn 0.9804 0.1427 -0.1356
vn 0.9761 -0.1577 -0.1498
vn -0.1010 0.1036 0.9895
vn -0.0132 0.2202 0.9754
vn -0.1218 -0.1218 0.9851
usemtl grass
s off
f 19/1/1 17/2/1 7/3/1
f 7/3/2 17/2/2 16/4/2
f 9/5/3 21/6/3 14/7/3
f 14/7/4 21/6/4 18/8/4
f 21/6/5 5/9/5 18/8/5
f 5/10/6 19/11/6 27/12/6 18/13/6
f 19/1/7 7/3/7 16/4/7 27/14/7
f 16/4/8 17/2/8 23/15/8
f 17/2/9 10/16/9 23/15/9
f 19/1/10 21/6/10 17/2/10
f 5/9/11 21/6/11 19/1/11
f 21/6/12 9/5/12 10/16/12 17/2/12
usemtl sand
f 29/17/13 23/18/13 10/19/13 22/20/13
f 22/21/14 10/22/14 9/23/14 12/24/14
f 11/25/15 1/26/15 15/27/15
f 28/28/16 20/29/16 8/30/16 25/31/16
f 27/32/17 16/33/17 8/30/17 20/29/17
f 26/34/18 14/35/18 6/36/18 24/37/18
f 11/38/19 26/34/19 24/37/19 1/39/19
f 3/40/20 12/41/20 26/34/20 11/38/20
f 12/41/21 9/42/21 14/35/21 26/34/21
f 14/7/22 18/8/22 6/43/22
f 18/8/23 27/14/23 20/44/23 6/43/23
f 16/45/24 23/18/24 8/46/24
f 15/47/25 28/28/25 25/31/25 2/48/25
f 1/49/26 24/50/26 28/28/26 15/47/26
f 24/50/27 6/51/27 20/29/27 28/28/27
f 11/25/15 15/27/15 13/52/15
f 13/52/15 15/27/15 2/53/15
f 3/54/15 11/25/15 13/52/15 4/55/15
f 4/56/14 22/21/14 12/24/14 3/57/14
f 13/58/28 29/17/28 22/20/28 4/59/28
f 2/60/29 25/61/29 29/17/29 13/58/29
f 25/61/30 8/46/30 23/18/30 29/17/30
