# Blender v2.80 (sub 75) OBJ File: ''
# www.blender.org
mtllib model_bridge.mtl
o Cube
v 1.000000 0.000000 -1.000000
v 1.000000 0.000000 1.000000
v -1.000000 0.000000 -1.000000
v -1.000000 0.000000 1.000000
v -1.200000 0.000000 0.000000
v 0.000000 0.000000 -1.000000
v 1.000000 1.000000 -1.000000
v -1.000000 1.000000 1.000000
v 1.000000 1.000000 1.000000
v -1.000000 1.000000 -1.000000
v 0.000000 2.000000 1.000000
v 0.000000 0.000000 1.000000
v 0.000000 2.000000 -1.000000
v 1.200000 0.000000 0.000000
v 0.000000 1.000000 -1.000000
v 0.900000 1.158919 0.000000
v 0.000000 0.000000 0.000000
v -0.900000 1.158919 0.000000
v 0.000000 1.000000 1.000000
v 0.000000 2.100000 -0.156453
v 1.000000 2.000000 -1.000000
v 1.000000 2.000000 1.000000
v -1.000000 2.000000 -1.000000
v -1.000000 2.000000 1.000000
v 1.000000 1.900000 0.000000
v 0.900000 2.000000 0.000000
v -1.000000 1.900000 0.000000
v -0.900000 2.000000 0.000000
vt 0.502668 0.238380
vt 0.491659 0.324936
vt 0.421132 0.334554
vt 0.421132 0.238380
vt 0.900050 0.588618
vt 0.836598 0.588618
vt 0.836598 0.502093
vt 0.900050 0.502093
vt 0.646244 0.519398
vt 0.646244 0.415569
vt 0.709696 0.432873
vt 0.709696 0.519398
vt 0.836598 0.675142
vt 0.836598 0.588618
vt 0.900050 0.588618
vt 0.900050 0.675142
vt 0.836598 0.676675
vt 0.836598 0.763129
vt 0.773147 0.754484
vt 0.773147 0.690763
vt 0.963501 0.502093
vt 0.900049 0.415569
vt 0.963501 0.415569
vt 0.963501 0.588618
vt 0.836598 0.502720
vt 0.836598 0.589174
vt 0.773147 0.580529
vt 0.773147 0.516808
vt 0.773147 0.589523
vt 0.709696 0.676675
vt 0.709696 0.590221
vt 0.836598 0.590221
vt 0.491659 0.151824
vt 0.421132 0.142206
vt 0.646244 0.623227
vt 0.709696 0.605922
vt 0.582793 0.605922
vt 0.582793 0.519398
vt 0.582793 0.432873
vt 0.773147 0.415569
vt 0.709696 0.502720
vt 0.709696 0.416266
vt 0.836598 0.416266
vt 0.963501 0.588618
vt 0.963501 0.675142
vt 0.900050 0.761666
vt 0.963501 0.761666
vt 0.836598 0.761667
vt 0.562185 0.238380
vt 0.562185 0.334554
vt 0.709696 0.763129
vt 0.836598 0.415569
vt 0.709696 0.589174
vt 0.632713 0.298098
vt 0.562186 0.297710
vt 0.632713 0.288100
vt 0.632713 0.104744
vt 0.562186 0.104356
vt 0.632713 0.094747
vt 0.703241 0.297710
vt 0.703241 0.104356
vt 0.562185 0.142206
vn -0.0489 0.9978 0.0440
vn 0.0000 0.0000 -1.0000
vn 0.0000 -1.0000 0.0000
vn 0.0000 0.0000 1.0000
vn 0.9970 -0.0573 0.0515
vn -0.9970 -0.0573 -0.0515
vn 0.9887 0.1374 0.0604
vn 0.9887 0.1374 -0.0604
vn 0.0489 0.9978 0.0440
vn -0.9887 0.1374 -0.0604
vn -0.9887 0.1374 0.0604
vn -0.0567 0.9971 -0.0510
vn 0.9970 -0.0573 -0.0515
vn -0.9970 -0.0573 0.0515
vn 0.7053 0.7053 -0.0705
vn -0.7053 0.7053 0.0705
vn 0.7053 0.7053 0.0705
vn -0.7053 0.7053 -0.0705
vn 0.0567 0.9971 -0.0510
usemtl Material
s off
f 20/1/1 28/2/1 24/3/1 11/4/1
f 10/5/2 23/6/2 13/7/2 15/8/2
f 17/9/3 14/10/3 2/11/3 12/12/3
f 9/13/4 22/14/4 11/15/4 19/16/4
f 7/17/5 21/18/5 25/19/5 16/20/5
f 6/21/2 15/8/2 7/22/2 1/23/2
f 3/24/2 10/5/2 15/8/2 6/21/2
f 8/25/6 24/26/6 27/27/6 18/28/6
f 14/29/7 16/20/7 9/30/7 2/31/7
f 1/32/8 7/17/8 16/20/8 14/29/8
f 26/33/9 20/1/9 11/4/9 22/34/9
f 5/35/3 17/9/3 12/12/3 4/36/3
f 3/37/3 6/38/3 17/9/3 5/35/3
f 6/38/3 1/39/3 14/10/3 17/9/3
f 5/40/10 18/28/10 10/41/10 3/42/10
f 4/43/11 8/25/11 18/28/11 5/40/11
f 19/16/4 11/15/4 24/44/4 8/45/4
f 12/46/4 19/16/4 8/45/4 4/47/4
f 2/48/4 9/13/4 19/16/4 12/46/4
f 13/49/12 23/50/12 28/2/12 20/1/12
f 16/20/13 25/19/13 22/51/13 9/30/13
f 15/8/2 13/7/2 21/52/2 7/22/2
f 18/28/14 27/27/14 23/53/14 10/41/14
f 26/54/15 22/55/15 25/56/15
f 28/57/16 23/58/16 27/59/16
f 21/60/17 26/54/17 25/56/17
f 24/61/18 28/57/18 27/59/18
f 21/62/19 13/49/19 20/1/19 26/33/19
